# This file uses centimeters as units for non-parametric coordinates.

mtllib Chess_Board_OBJ.mtl
g default
v -8.898091 -1.062647 8.898091
v 8.898091 -1.062647 8.898091
v -8.898090 0.357337 8.898091
v 8.898091 0.357337 8.898091
v -8.898090 0.357337 -8.898091
v 8.898091 0.357337 -8.898091
v -8.898091 -1.062647 -8.898091
v 8.898091 -1.062647 -8.898091
vt 0.375000 0.000000
vt 0.625000 0.000000
vt 0.300556 0.001505
vt 0.699445 0.001505
vt 0.300556 0.398482
vt 0.699445 0.398482
vt 0.300556 0.745734
vt 0.699445 0.745734
vt 0.375000 1.000000
vt 0.625000 1.000000
vt 0.875000 0.000000
vt 0.875000 0.250000
vt 0.125000 0.000000
vt 0.125000 0.250000
vt 0.001992 0.998008
vt 0.001992 0.001992
vt 0.998007 0.001992
vt 0.998007 0.998008
vn 0.000000 0.000000 1.000000
vn 0.000000 0.000000 1.000000
vn 0.000000 0.000000 1.000000
vn 0.000000 0.000000 1.000000
vn 0.000000 1.000000 0.000000
vn 0.000000 1.000000 0.000000
vn 0.000000 1.000000 0.000000
vn 0.000000 1.000000 0.000000
vn 0.000000 0.000000 -1.000000
vn 0.000000 0.000000 -1.000000
vn 0.000000 0.000000 -1.000000
vn 0.000000 0.000000 -1.000000
vn 0.000000 -1.000000 0.000000
vn 0.000000 -1.000000 0.000000
vn 0.000000 -1.000000 0.000000
vn 0.000000 -1.000000 0.000000
vn 1.000000 0.000000 0.000000
vn 1.000000 0.000000 0.000000
vn 1.000000 0.000000 0.000000
vn 1.000000 0.000000 0.000000
vn -1.000000 0.000000 0.000000
vn -1.000000 0.000000 0.000000
vn -1.000000 0.000000 0.000000
vn -1.000000 0.000000 0.000000
s off
g Board_Chess
usemtl lambert4SG
f 1/1/1 2/2/2 4/4/3 3/3/4
usemtl lambert2SG
f 3/15/5 4/16/6 6/17/7 5/18/8
usemtl lambert4SG
f 5/5/9 6/6/10 8/8/11 7/7/12
f 7/7/13 8/8/14 2/10/15 1/9/16
f 2/2/17 8/11/18 6/12/19 4/4/20
f 7/13/21 1/1/22 3/3/23 5/14/24
